# xmcd
#
# Track frame offsets:
#	182
#	26252
#	58137
#	80060
#	106460
#	130682
#	154672
#	180982
#	209085
#	236560
#	264925
#
# Disc length: 3887 seconds
#
# Revision: 0
# Processed by: cddbd v1.5.1PL2 Copyright (c) Steve Scherf et al.
# Submitted via: EasyCDDAExtractor 8.2.3.1
#
DISCID=8e0f2d0b
DTITLE=Red Alert and Mike Slammer - Slammin' Vinyl
DYEAR=1995
DGENRE=Happy Hardcore
TTITLE0=Don Gorgon Sound
TTITLE1=Hold Tight
TTITLE2=Ruff
TTITLE3=Ganja Man
TTITLE4=1.2.3
TTITLE5=In Effect
TTITLE6=F*ckin' Hardcore
TTITLE7=I Don't Need Your Love
TTITLE8=Ruffer
TTITLE9=In Effect (Remix)
TTITLE10=Let's Do It
EXTD=
EXTT0=
EXTT1=
EXTT2=
EXTT3=
EXTT4=
EXTT5=
EXTT6=
EXTT7=
EXTT8=
EXTT9=
EXTT10=
PLAYORDER=
